<svg id="visual" viewBox="0 0 900 150" width="900" height="150" xmlns="http://www.w3.org/2000/svg" xmlns:xlink="http://www.w3.org/1999/xlink" version="1.1"><rect x="0" y="0" width="900" height="150" fill="#0F172A"></rect><path d="M0 61L15 61.2C30 61.3 60 61.7 90 57.8C120 54 150 46 180 49.5C210 53 240 68 270 73.8C300 79.7 330 76.3 360 75.7C390 75 420 77 450 70.2C480 63.3 510 47.7 540 48.2C570 48.7 600 65.3 630 65.3C660 65.3 690 48.7 720 42.2C750 35.7 780 39.3 810 41.7C840 44 870 45 885 45.5L900 46L900 151L885 151C870 151 840 151 810 151C780 151 750 151 720 151C690 151 660 151 630 151C600 151 570 151 540 151C510 151 480 151 450 151C420 151 390 151 360 151C330 151 300 151 270 151C240 151 210 151 180 151C150 151 120 151 90 151C60 151 30 151 15 151L0 151Z" fill="#fa7268"></path><path d="M0 85L15 88C30 91 60 97 90 95.5C120 94 150 85 180 83.3C210 81.7 240 87.3 270 88.5C300 89.7 330 86.3 360 87.7C390 89 420 95 450 98.3C480 101.7 510 102.3 540 99C570 95.7 600 88.3 630 82C660 75.7 690 70.3 720 69.3C750 68.3 780 71.7 810 74.3C840 77 870 79 885 80L900 81L900 151L885 151C870 151 840 151 810 151C780 151 750 151 720 151C690 151 660 151 630 151C600 151 570 151 540 151C510 151 480 151 450 151C420 151 390 151 360 151C330 151 300 151 270 151C240 151 210 151 180 151C150 151 120 151 90 151C60 151 30 151 15 151L0 151Z" fill="#e34c67"></path><path d="M0 115L15 116.7C30 118.3 60 121.7 90 121.3C120 121 150 117 180 112.5C210 108 240 103 270 100.2C300 97.3 330 96.7 360 96C390 95.3 420 94.7 450 97.8C480 101 510 108 540 108C570 108 600 101 630 102.5C660 104 690 114 720 116.5C750 119 780 114 810 114.3C840 114.7 870 120.3 885 123.2L900 126L900 151L885 151C870 151 840 151 810 151C780 151 750 151 720 151C690 151 660 151 630 151C600 151 570 151 540 151C510 151 480 151 450 151C420 151 390 151 360 151C330 151 300 151 270 151C240 151 210 151 180 151C150 151 120 151 90 151C60 151 30 151 15 151L0 151Z" fill="#c62368"></path></svg>