<svg id="visual" viewBox="0 0 900 150" width="900" height="150" xmlns="http://www.w3.org/2000/svg" xmlns:xlink="http://www.w3.org/1999/xlink" version="1.1"><rect x="0" y="0" width="900" height="150" fill="#0F172A"></rect><path d="M0 56L21.5 56.2C43 56.3 86 56.7 128.8 55.5C171.7 54.3 214.3 51.7 257.2 51.8C300 52 343 55 385.8 54.3C428.7 53.7 471.3 49.3 514.2 46.5C557 43.7 600 42.3 642.8 44.5C685.7 46.7 728.3 52.3 771.2 52.8C814 53.3 857 48.7 878.5 46.3L900 44L900 0L878.5 0C857 0 814 0 771.2 0C728.3 0 685.7 0 642.8 0C600 0 557 0 514.2 0C471.3 0 428.7 0 385.8 0C343 0 300 0 257.2 0C214.3 0 171.7 0 128.8 0C86 0 43 0 21.5 0L0 0Z" fill="#fa7268"></path><path d="M0 48L21.5 46C43 44 86 40 128.8 39C171.7 38 214.3 40 257.2 40.7C300 41.3 343 40.7 385.8 41.3C428.7 42 471.3 44 514.2 44C557 44 600 42 642.8 41.8C685.7 41.7 728.3 43.3 771.2 41.8C814 40.3 857 35.7 878.5 33.3L900 31L900 0L878.5 0C857 0 814 0 771.2 0C728.3 0 685.7 0 642.8 0C600 0 557 0 514.2 0C471.3 0 428.7 0 385.8 0C343 0 300 0 257.2 0C214.3 0 171.7 0 128.8 0C86 0 43 0 21.5 0L0 0Z" fill="#ef5f67"></path><path d="M0 23L21.5 23C43 23 86 23 128.8 23.2C171.7 23.3 214.3 23.7 257.2 23.5C300 23.3 343 22.7 385.8 22.8C428.7 23 471.3 24 514.2 26.7C557 29.3 600 33.7 642.8 34.5C685.7 35.3 728.3 32.7 771.2 30C814 27.3 857 24.7 878.5 23.3L900 22L900 0L878.5 0C857 0 814 0 771.2 0C728.3 0 685.7 0 642.8 0C600 0 557 0 514.2 0C471.3 0 428.7 0 385.8 0C343 0 300 0 257.2 0C214.3 0 171.7 0 128.8 0C86 0 43 0 21.5 0L0 0Z" fill="#e34c67"></path><path d="M0 25L21.5 23.5C43 22 86 19 128.8 19C171.7 19 214.3 22 257.2 21.8C300 21.7 343 18.3 385.8 17.2C428.7 16 471.3 17 514.2 17.5C557 18 600 18 642.8 19.3C685.7 20.7 728.3 23.3 771.2 25.2C814 27 857 28 878.5 28.5L900 29L900 0L878.5 0C857 0 814 0 771.2 0C728.3 0 685.7 0 642.8 0C600 0 557 0 514.2 0C471.3 0 428.7 0 385.8 0C343 0 300 0 257.2 0C214.3 0 171.7 0 128.8 0C86 0 43 0 21.5 0L0 0Z" fill="#d53867"></path><path d="M0 10L21.5 11C43 12 86 14 128.8 14.3C171.7 14.7 214.3 13.3 257.2 13.5C300 13.7 343 15.3 385.8 14.8C428.7 14.3 471.3 11.7 514.2 9.7C557 7.7 600 6.3 642.8 6.5C685.7 6.7 728.3 8.3 771.2 9C814 9.7 857 9.3 878.5 9.2L900 9L900 0L878.5 0C857 0 814 0 771.2 0C728.3 0 685.7 0 642.8 0C600 0 557 0 514.2 0C471.3 0 428.7 0 385.8 0C343 0 300 0 257.2 0C214.3 0 171.7 0 128.8 0C86 0 43 0 21.5 0L0 0Z" fill="#c62368"></path></svg>