<svg id="visual" viewBox="0 0 900 150" width="900" height="150" xmlns="http://www.w3.org/2000/svg" xmlns:xlink="http://www.w3.org/1999/xlink" version="1.1"><rect x="0" y="0" width="900" height="150" fill="#0F172A"></rect><path d="M0 87L15 86.8C30 86.7 60 86.3 90 90.2C120 94 150 102 180 98.5C210 95 240 80 270 74.2C300 68.3 330 71.7 360 72.3C390 73 420 71 450 77.8C480 84.7 510 100.3 540 99.8C570 99.3 600 82.7 630 82.7C660 82.7 690 99.3 720 105.8C750 112.3 780 108.7 810 106.3C840 104 870 103 885 102.5L900 102L900 0L885 0C870 0 840 0 810 0C780 0 750 0 720 0C690 0 660 0 630 0C600 0 570 0 540 0C510 0 480 0 450 0C420 0 390 0 360 0C330 0 300 0 270 0C240 0 210 0 180 0C150 0 120 0 90 0C60 0 30 0 15 0L0 0Z" fill="#fa7268"></path><path d="M0 63L15 60C30 57 60 51 90 52.5C120 54 150 63 180 64.7C210 66.3 240 60.7 270 59.5C300 58.3 330 61.7 360 60.3C390 59 420 53 450 49.7C480 46.3 510 45.7 540 49C570 52.3 600 59.7 630 66C660 72.3 690 77.7 720 78.7C750 79.7 780 76.3 810 73.7C840 71 870 69 885 68L900 67L900 0L885 0C870 0 840 0 810 0C780 0 750 0 720 0C690 0 660 0 630 0C600 0 570 0 540 0C510 0 480 0 450 0C420 0 390 0 360 0C330 0 300 0 270 0C240 0 210 0 180 0C150 0 120 0 90 0C60 0 30 0 15 0L0 0Z" fill="#e34c67"></path><path d="M0 33L15 31.3C30 29.7 60 26.3 90 26.7C120 27 150 31 180 35.5C210 40 240 45 270 47.8C300 50.7 330 51.3 360 52C390 52.7 420 53.3 450 50.2C480 47 510 40 540 40C570 40 600 47 630 45.5C660 44 690 34 720 31.5C750 29 780 34 810 33.7C840 33.3 870 27.7 885 24.8L900 22L900 0L885 0C870 0 840 0 810 0C780 0 750 0 720 0C690 0 660 0 630 0C600 0 570 0 540 0C510 0 480 0 450 0C420 0 390 0 360 0C330 0 300 0 270 0C240 0 210 0 180 0C150 0 120 0 90 0C60 0 30 0 15 0L0 0Z" fill="#c62368"></path></svg>