<svg id="visual" viewBox="0 0 960 300" width="960" height="300" xmlns="http://www.w3.org/2000/svg" xmlns:xlink="http://www.w3.org/1999/xlink" version="1.1"><rect x="0" y="0" width="960" height="300" fill="#001220"></rect><path d="M0 178L22.8 182C45.7 186 91.3 194 137 196C182.7 198 228.3 194 274 194.7C319.7 195.3 365.3 200.7 411.2 200.8C457 201 503 196 548.8 196.3C594.7 196.7 640.3 202.3 686 199.8C731.7 197.3 777.3 186.7 823 184.2C868.7 181.7 914.3 187.3 937.2 190.2L960 193L960 301L937.2 301C914.3 301 868.7 301 823 301C777.3 301 731.7 301 686 301C640.3 301 594.7 301 548.8 301C503 301 457 301 411.2 301C365.3 301 319.7 301 274 301C228.3 301 182.7 301 137 301C91.3 301 45.7 301 22.8 301L0 301Z" fill="#172a53"></path><path d="M0 205L22.8 208.8C45.7 212.7 91.3 220.3 137 225C182.7 229.7 228.3 231.3 274 233C319.7 234.7 365.3 236.3 411.2 235.2C457 234 503 230 548.8 227.8C594.7 225.7 640.3 225.3 686 224C731.7 222.7 777.3 220.3 823 221.3C868.7 222.3 914.3 226.7 937.2 228.8L960 231L960 301L937.2 301C914.3 301 868.7 301 823 301C777.3 301 731.7 301 686 301C640.3 301 594.7 301 548.8 301C503 301 457 301 411.2 301C365.3 301 319.7 301 274 301C228.3 301 182.7 301 137 301C91.3 301 45.7 301 22.8 301L0 301Z" fill="#403069"></path><path d="M0 220L22.8 220.2C45.7 220.3 91.3 220.7 137 226.3C182.7 232 228.3 243 274 246.7C319.7 250.3 365.3 246.7 411.2 241C457 235.3 503 227.7 548.8 226.5C594.7 225.3 640.3 230.7 686 235.5C731.7 240.3 777.3 244.7 823 246.7C868.7 248.7 914.3 248.3 937.2 248.2L960 248L960 301L937.2 301C914.3 301 868.7 301 823 301C777.3 301 731.7 301 686 301C640.3 301 594.7 301 548.8 301C503 301 457 301 411.2 301C365.3 301 319.7 301 274 301C228.3 301 182.7 301 137 301C91.3 301 45.7 301 22.8 301L0 301Z" fill="#6e3075"></path><path d="M0 268L22.8 268.3C45.7 268.7 91.3 269.3 137 265.3C182.7 261.3 228.3 252.7 274 247.7C319.7 242.7 365.3 241.3 411.2 241.7C457 242 503 244 548.8 245C594.7 246 640.3 246 686 249.5C731.7 253 777.3 260 823 263.8C868.7 267.7 914.3 268.3 937.2 268.7L960 269L960 301L937.2 301C914.3 301 868.7 301 823 301C777.3 301 731.7 301 686 301C640.3 301 594.7 301 548.8 301C503 301 457 301 411.2 301C365.3 301 319.7 301 274 301C228.3 301 182.7 301 137 301C91.3 301 45.7 301 22.8 301L0 301Z" fill="#9c2a75"></path><path d="M0 264L22.8 264.2C45.7 264.3 91.3 264.7 137 267.7C182.7 270.7 228.3 276.3 274 278.8C319.7 281.3 365.3 280.7 411.2 279.7C457 278.7 503 277.3 548.8 276.2C594.7 275 640.3 274 686 272.5C731.7 271 777.3 269 823 269.2C868.7 269.3 914.3 271.7 937.2 272.8L960 274L960 301L937.2 301C914.3 301 868.7 301 823 301C777.3 301 731.7 301 686 301C640.3 301 594.7 301 548.8 301C503 301 457 301 411.2 301C365.3 301 319.7 301 274 301C228.3 301 182.7 301 137 301C91.3 301 45.7 301 22.8 301L0 301Z" fill="#c62368"></path></svg>