<svg id="visual" viewBox="0 0 900 150" width="900" height="150" xmlns="http://www.w3.org/2000/svg" xmlns:xlink="http://www.w3.org/1999/xlink" version="1.1"><rect x="0" y="0" width="900" height="150" fill="#0F172A"></rect><path d="M0 92L21.5 91.8C43 91.7 86 91.3 128.8 92.5C171.7 93.7 214.3 96.3 257.2 96.2C300 96 343 93 385.8 93.7C428.7 94.3 471.3 98.7 514.2 101.5C557 104.3 600 105.7 642.8 103.5C685.7 101.3 728.3 95.7 771.2 95.2C814 94.7 857 99.3 878.5 101.7L900 104L900 151L878.5 151C857 151 814 151 771.2 151C728.3 151 685.7 151 642.8 151C600 151 557 151 514.2 151C471.3 151 428.7 151 385.8 151C343 151 300 151 257.2 151C214.3 151 171.7 151 128.8 151C86 151 43 151 21.5 151L0 151Z" fill="#fa7268"></path><path d="M0 100L21.5 102C43 104 86 108 128.8 109C171.7 110 214.3 108 257.2 107.3C300 106.7 343 107.3 385.8 106.7C428.7 106 471.3 104 514.2 104C557 104 600 106 642.8 106.2C685.7 106.3 728.3 104.7 771.2 106.2C814 107.7 857 112.3 878.5 114.7L900 117L900 151L878.5 151C857 151 814 151 771.2 151C728.3 151 685.7 151 642.8 151C600 151 557 151 514.2 151C471.3 151 428.7 151 385.8 151C343 151 300 151 257.2 151C214.3 151 171.7 151 128.8 151C86 151 43 151 21.5 151L0 151Z" fill="#ef5f67"></path><path d="M0 125L21.5 125C43 125 86 125 128.8 124.8C171.7 124.7 214.3 124.3 257.2 124.5C300 124.7 343 125.3 385.8 125.2C428.7 125 471.3 124 514.2 121.3C557 118.7 600 114.3 642.8 113.5C685.7 112.7 728.3 115.3 771.2 118C814 120.7 857 123.3 878.5 124.7L900 126L900 151L878.5 151C857 151 814 151 771.2 151C728.3 151 685.7 151 642.8 151C600 151 557 151 514.2 151C471.3 151 428.7 151 385.8 151C343 151 300 151 257.2 151C214.3 151 171.7 151 128.8 151C86 151 43 151 21.5 151L0 151Z" fill="#e34c67"></path><path d="M0 123L21.5 124.5C43 126 86 129 128.8 129C171.7 129 214.3 126 257.2 126.2C300 126.3 343 129.7 385.8 130.8C428.7 132 471.3 131 514.2 130.5C557 130 600 130 642.8 128.7C685.7 127.3 728.3 124.7 771.2 122.8C814 121 857 120 878.5 119.5L900 119L900 151L878.5 151C857 151 814 151 771.2 151C728.3 151 685.7 151 642.8 151C600 151 557 151 514.2 151C471.3 151 428.7 151 385.8 151C343 151 300 151 257.2 151C214.3 151 171.7 151 128.8 151C86 151 43 151 21.5 151L0 151Z" fill="#d53867"></path><path d="M0 138L21.5 137C43 136 86 134 128.8 133.7C171.7 133.3 214.3 134.7 257.2 134.5C300 134.3 343 132.7 385.8 133.2C428.7 133.7 471.3 136.3 514.2 138.3C557 140.3 600 141.7 642.8 141.5C685.7 141.3 728.3 139.7 771.2 139C814 138.3 857 138.7 878.5 138.8L900 139L900 151L878.5 151C857 151 814 151 771.2 151C728.3 151 685.7 151 642.8 151C600 151 557 151 514.2 151C471.3 151 428.7 151 385.8 151C343 151 300 151 257.2 151C214.3 151 171.7 151 128.8 151C86 151 43 151 21.5 151L0 151Z" fill="#c62368"></path></svg>