<svg id="visual" viewBox="0 0 900 300" width="900" height="300" xmlns="http://www.w3.org/2000/svg" xmlns:xlink="http://www.w3.org/1999/xlink" version="1.1"><path d="M0 67L13.7 65C27.3 63 54.7 59 82 56C109.3 53 136.7 51 163.8 58C191 65 218 81 245.2 82.5C272.3 84 299.7 71 327 73C354.3 75 381.7 92 409 90.5C436.3 89 463.7 69 491 60C518.3 51 545.7 53 573 55.5C600.3 58 627.7 61 654.8 64.5C682 68 709 72 736.2 76C763.3 80 790.7 84 818 85.5C845.3 87 872.7 86 886.3 85.5L900 85L900 0L886.3 0C872.7 0 845.3 0 818 0C790.7 0 763.3 0 736.2 0C709 0 682 0 654.8 0C627.7 0 600.3 0 573 0C545.7 0 518.3 0 491 0C463.7 0 436.3 0 409 0C381.7 0 354.3 0 327 0C299.7 0 272.3 0 245.2 0C218 0 191 0 163.8 0C136.7 0 109.3 0 82 0C54.7 0 27.3 0 13.7 0L0 0Z" fill="#0d1320"></path><path d="M0 145L13.7 143C27.3 141 54.7 137 82 132.5C109.3 128 136.7 123 163.8 127C191 131 218 144 245.2 138C272.3 132 299.7 107 327 105.5C354.3 104 381.7 126 409 131.5C436.3 137 463.7 126 491 115.5C518.3 105 545.7 95 573 92C600.3 89 627.7 93 654.8 100C682 107 709 117 736.2 124.5C763.3 132 790.7 137 818 142C845.3 147 872.7 152 886.3 154.5L900 157L900 83L886.3 83.5C872.7 84 845.3 85 818 83.5C790.7 82 763.3 78 736.2 74C709 70 682 66 654.8 62.5C627.7 59 600.3 56 573 53.5C545.7 51 518.3 49 491 58C463.7 67 436.3 87 409 88.5C381.7 90 354.3 73 327 71C299.7 69 272.3 82 245.2 80.5C218 79 191 63 163.8 56C136.7 49 109.3 51 82 54C54.7 57 27.3 61 13.7 63L0 65Z" fill="#141e35"></path><path d="M0 175L13.7 178C27.3 181 54.7 187 82 187C109.3 187 136.7 181 163.8 180C191 179 218 183 245.2 177.5C272.3 172 299.7 157 327 159.5C354.3 162 381.7 182 409 186.5C436.3 191 463.7 180 491 171.5C518.3 163 545.7 157 573 153C600.3 149 627.7 147 654.8 148C682 149 709 153 736.2 158.5C763.3 164 790.7 171 818 179.5C845.3 188 872.7 198 886.3 203L900 208L900 155L886.3 152.5C872.7 150 845.3 145 818 140C790.7 135 763.3 130 736.2 122.5C709 115 682 105 654.8 98C627.7 91 600.3 87 573 90C545.7 93 518.3 103 491 113.5C463.7 124 436.3 135 409 129.5C381.7 124 354.3 102 327 103.5C299.7 105 272.3 130 245.2 136C218 142 191 129 163.8 125C136.7 121 109.3 126 82 130.5C54.7 135 27.3 139 13.7 141L0 143Z" fill="#263559"></path><path d="M0 259L13.7 263C27.3 267 54.7 275 82 279C109.3 283 136.7 283 163.8 278C191 273 218 263 245.2 261.5C272.3 260 299.7 267 327 266.5C354.3 266 381.7 258 409 255C436.3 252 463.7 254 491 259C518.3 264 545.7 272 573 272C600.3 272 627.7 264 654.8 259.5C682 255 709 254 736.2 253.5C763.3 253 790.7 253 818 253.5C845.3 254 872.7 255 886.3 255.5L900 256L900 206L886.3 201C872.7 196 845.3 186 818 177.5C790.7 169 763.3 162 736.2 156.5C709 151 682 147 654.8 146C627.7 145 600.3 147 573 151C545.7 155 518.3 161 491 169.5C463.7 178 436.3 189 409 184.5C381.7 180 354.3 160 327 157.5C299.7 155 272.3 170 245.2 175.5C218 181 191 177 163.8 178C136.7 179 109.3 185 82 185C54.7 185 27.3 179 13.7 176L0 173Z" fill="#141e35"></path><path d="M0 301L13.7 301C27.3 301 54.7 301 82 301C109.3 301 136.7 301 163.8 301C191 301 218 301 245.2 301C272.3 301 299.7 301 327 301C354.3 301 381.7 301 409 301C436.3 301 463.7 301 491 301C518.3 301 545.7 301 573 301C600.3 301 627.7 301 654.8 301C682 301 709 301 736.2 301C763.3 301 790.7 301 818 301C845.3 301 872.7 301 886.3 301L900 301L900 254L886.3 253.5C872.7 253 845.3 252 818 251.5C790.7 251 763.3 251 736.2 251.5C709 252 682 253 654.8 257.5C627.7 262 600.3 270 573 270C545.7 270 518.3 262 491 257C463.7 252 436.3 250 409 253C381.7 256 354.3 264 327 264.5C299.7 265 272.3 258 245.2 259.5C218 261 191 271 163.8 276C136.7 281 109.3 281 82 277C54.7 273 27.3 265 13.7 261L0 257Z" fill="#0d1320"></path></svg>