<svg id="visual" viewBox="0 0 900 150" width="900" height="150" xmlns="http://www.w3.org/2000/svg" xmlns:xlink="http://www.w3.org/1999/xlink" version="1.1"><path d="M0 21L13.7 20C27.3 19 54.7 17 82 16.7C109.3 16.3 136.7 17.7 163.8 19.8C191 22 218 25 245.2 25.3C272.3 25.7 299.7 23.3 327 20.8C354.3 18.3 381.7 15.7 409 16.7C436.3 17.7 463.7 22.3 491 22.7C518.3 23 545.7 19 573 19.2C600.3 19.3 627.7 23.7 654.8 25.2C682 26.7 709 25.3 736.2 24.7C763.3 24 790.7 24 818 24.5C845.3 25 872.7 26 886.3 26.5L900 27L900 0L886.3 0C872.7 0 845.3 0 818 0C790.7 0 763.3 0 736.2 0C709 0 682 0 654.8 0C627.7 0 600.3 0 573 0C545.7 0 518.3 0 491 0C463.7 0 436.3 0 409 0C381.7 0 354.3 0 327 0C299.7 0 272.3 0 245.2 0C218 0 191 0 163.8 0C136.7 0 109.3 0 82 0C54.7 0 27.3 0 13.7 0L0 0Z" fill="#263559"></path><path d="M0 45L13.7 50.7C27.3 56.3 54.7 67.7 82 70.5C109.3 73.3 136.7 67.7 163.8 68.7C191 69.7 218 77.3 245.2 74.5C272.3 71.7 299.7 58.3 327 53.3C354.3 48.3 381.7 51.7 409 55.2C436.3 58.7 463.7 62.3 491 60.8C518.3 59.3 545.7 52.7 573 55.3C600.3 58 627.7 70 654.8 74.3C682 78.7 709 75.3 736.2 69.8C763.3 64.3 790.7 56.7 818 55C845.3 53.3 872.7 57.7 886.3 59.8L900 62L900 25L886.3 24.5C872.7 24 845.3 23 818 22.5C790.7 22 763.3 22 736.2 22.7C709 23.3 682 24.7 654.8 23.2C627.7 21.7 600.3 17.3 573 17.2C545.7 17 518.3 21 491 20.7C463.7 20.3 436.3 15.7 409 14.7C381.7 13.7 354.3 16.3 327 18.8C299.7 21.3 272.3 23.7 245.2 23.3C218 23 191 20 163.8 17.8C136.7 15.7 109.3 14.3 82 14.7C54.7 15 27.3 17 13.7 18L0 19Z" fill="#1a2641"></path><path d="M0 102L13.7 102.7C27.3 103.3 54.7 104.7 82 104.2C109.3 103.7 136.7 101.3 163.8 102.7C191 104 218 109 245.2 109.7C272.3 110.3 299.7 106.7 327 104.8C354.3 103 381.7 103 409 105.8C436.3 108.7 463.7 114.3 491 114.3C518.3 114.3 545.7 108.7 573 107.2C600.3 105.7 627.7 108.3 654.8 107.7C682 107 709 103 736.2 102.5C763.3 102 790.7 105 818 109.2C845.3 113.3 872.7 118.7 886.3 121.3L900 124L900 60L886.3 57.8C872.7 55.7 845.3 51.3 818 53C790.7 54.7 763.3 62.3 736.2 67.8C709 73.3 682 76.7 654.8 72.3C627.7 68 600.3 56 573 53.3C545.7 50.7 518.3 57.3 491 58.8C463.7 60.3 436.3 56.7 409 53.2C381.7 49.7 354.3 46.3 327 51.3C299.7 56.3 272.3 69.7 245.2 72.5C218 75.3 191 67.7 163.8 66.7C136.7 65.7 109.3 71.3 82 68.5C54.7 65.7 27.3 54.3 13.7 48.7L0 43Z" fill="#0f172a"></path><path d="M0 136L13.7 135C27.3 134 54.7 132 82 131.3C109.3 130.7 136.7 131.3 163.8 131.8C191 132.3 218 132.7 245.2 132.7C272.3 132.7 299.7 132.3 327 132.3C354.3 132.3 381.7 132.7 409 132.7C436.3 132.7 463.7 132.3 491 131.3C518.3 130.3 545.7 128.7 573 130.3C600.3 132 627.7 137 654.8 137.5C682 138 709 134 736.2 134C763.3 134 790.7 138 818 139.3C845.3 140.7 872.7 139.3 886.3 138.7L900 138L900 122L886.3 119.3C872.7 116.7 845.3 111.3 818 107.2C790.7 103 763.3 100 736.2 100.5C709 101 682 105 654.8 105.7C627.7 106.3 600.3 103.7 573 105.2C545.7 106.7 518.3 112.3 491 112.3C463.7 112.3 436.3 106.7 409 103.8C381.7 101 354.3 101 327 102.8C299.7 104.7 272.3 108.3 245.2 107.7C218 107 191 102 163.8 100.7C136.7 99.3 109.3 101.7 82 102.2C54.7 102.7 27.3 101.3 13.7 100.7L0 100Z" fill="#0e1525"></path><path d="M0 151L13.7 151C27.3 151 54.7 151 82 151C109.3 151 136.7 151 163.8 151C191 151 218 151 245.2 151C272.3 151 299.7 151 327 151C354.3 151 381.7 151 409 151C436.3 151 463.7 151 491 151C518.3 151 545.7 151 573 151C600.3 151 627.7 151 654.8 151C682 151 709 151 736.2 151C763.3 151 790.7 151 818 151C845.3 151 872.7 151 886.3 151L900 151L900 136L886.3 136.7C872.7 137.3 845.3 138.7 818 137.3C790.7 136 763.3 132 736.2 132C709 132 682 136 654.8 135.5C627.7 135 600.3 130 573 128.3C545.7 126.7 518.3 128.3 491 129.3C463.7 130.3 436.3 130.7 409 130.7C381.7 130.7 354.3 130.3 327 130.3C299.7 130.3 272.3 130.7 245.2 130.7C218 130.7 191 130.3 163.8 129.8C136.7 129.3 109.3 128.7 82 129.3C54.7 130 27.3 132 13.7 133L0 134Z" fill="#0d1320"></path></svg>